<?xml version="1.0" encoding="iso-8859-1"?>
<!-- Generator: Adobe Illustrator 19.0.0, SVG Export Plug-In . SVG Version: 6.00 Build 0)  -->
<svg version="1.1" id="Capa_1" xmlns="http://www.w3.org/2000/svg" xmlns:xlink="http://www.w3.org/1999/xlink" x="0px" y="0px"
	 viewBox="0 0 512.019 512.019" style="enable-background:new 0 0 512.019 512.019;" xml:space="preserve">
<g>
	<path style="fill:#CC4B4C;" d="M269.496,265.659c7.84-7.848,28.922-28.936,36.762-36.783l56.073-56.124l66.92-66.981
		c25.921-25.944,51.832-51.898,77.733-77.862c1.785-1.588,3.261-3.492,4.353-5.617c1.082-2.18,0.866-4.78-0.561-6.751
		c-2.273-1.921-5.291-2.715-8.216-2.163c-21.755,0.462-43.433,2.76-64.802,6.869c-35.341,7.726-68.128,24.338-95.26,48.267
		c-11.583,10.231-99.974,100.149-117.232,117.43c-1.541,1.543-16.323,16.327-17.864,17.87L269.496,265.659z"/>
	<path style="fill:#A5A5A4;" d="M388.239,146.899c-8.651,8.651-17.302,17.214-25.865,25.865l-79.625,79.625l-62.146-61.793
		l4.679-4.679c9.092-9.092,38.135-38.577,65.148-65.854l0.794,0.794C374.909,104.173,387.18,142.838,388.239,146.899z"/>
	<path style="fill:#CC4B4C;" d="M419.222,293.598c-0.785,16.489-14.382,29.454-30.89,29.454c-16.508,0-30.105-12.965-30.89-29.454
		c0-11.841,16.369-43.407,25.275-55.634c1.323-1.771,3.404-2.813,5.615-2.813s4.291,1.043,5.615,2.813
		C402.853,250.19,419.222,281.757,419.222,293.598z"/>
	<path style="fill:#5E5F62;" d="M27.078,370.247c0,0-3.895,3.924-5.916,5.919c-24.364,23.814-28.146,61.669-8.976,89.833
		c11.688,18.094,30.888,29.978,52.296,32.37c21.407,2.392,42.757-4.962,58.15-20.03c15.861-15.894,23.161-38.416,19.64-60.592
		c-0.833-5.453,0.988-10.977,4.9-14.866l137.875-137.896c1.647-1.644,2.572-3.876,2.572-6.203c0-2.327-0.925-4.558-2.572-6.203
		l-63.906-63.915c-3.455-3.45-9.052-3.45-12.507,0L27.078,370.247z"/>
	<path style="fill:#D1D4D1;" d="M58.024,416.001c-5.166,5.02-6.788,12.664-4.106,19.35c2.682,6.686,9.136,11.089,16.34,11.148
		c7.203,0.059,13.729-4.24,16.519-10.881c2.79-6.641,1.293-14.31-3.791-19.414c-3.267-3.367-7.747-5.283-12.439-5.322
		S61.346,412.688,58.024,416.001L58.024,416.001z"/>
	<g>
		<path style="fill:#A5A5A4;" d="M70.605,384.622c-3.574,0.001-6.796-2.153-8.161-5.456c-1.365-3.303-0.604-7.104,1.929-9.626
			l97.086-96.694c3.454-3.442,9.045-3.433,12.487,0.022c3.442,3.454,3.433,9.045-0.022,12.487l-97.086,96.694
			C75.183,383.699,72.941,384.624,70.605,384.622L70.605,384.622z"/>
		<path style="fill:#A5A5A4;" d="M194.165,261.557c-3.575,0.002-6.797-2.153-8.161-5.457s-0.599-7.105,1.937-9.625l17.655-17.578
			c2.234-2.224,5.486-3.086,8.529-2.263s5.416,3.207,6.224,6.254s-0.07,6.294-2.304,8.517l-17.655,17.578
			C198.739,260.635,196.5,261.561,194.165,261.557L194.165,261.557z"/>
	</g>
</g>
<g>
</g>
<g>
</g>
<g>
</g>
<g>
</g>
<g>
</g>
<g>
</g>
<g>
</g>
<g>
</g>
<g>
</g>
<g>
</g>
<g>
</g>
<g>
</g>
<g>
</g>
<g>
</g>
<g>
</g>
</svg>
