<?xml version="1.0" encoding="iso-8859-1"?>
<!-- Generator: Adobe Illustrator 19.0.0, SVG Export Plug-In . SVG Version: 6.00 Build 0)  -->
<svg version="1.1" id="Capa_1" xmlns="http://www.w3.org/2000/svg" xmlns:xlink="http://www.w3.org/1999/xlink" x="0px" y="0px"
	 viewBox="0 0 512 512" style="enable-background:new 0 0 512 512;" xml:space="preserve">
<g>
	<path style="fill:#CB8252;" d="M358.67,0H153.33c-17.187,0-31.877,12.374-34.797,29.311L82.53,238.126
		c-2.022,11.726-1.048,23.772,2.831,35.021l74.156,215.054C164.428,502.443,177.834,512,192.899,512h126.202
		c15.065,0,28.47-9.557,33.381-23.799l74.156-215.054c3.879-11.249,4.853-23.295,2.831-35.021L393.467,29.311
		C390.547,12.374,375.857,0,358.67,0z"/>
	<path style="fill:#805333;" d="M393.269,261.65l-70.091,203.123c-2.408,7.156-9.134,11.96-16.684,11.917H205.506
		c-7.55,0.043-14.276-4.762-16.684-11.917L118.731,261.65c-1.921-5.648-2.407-11.685-1.412-17.567l33.457-194.119
		c1.475-8.456,8.807-14.634,17.39-14.654h175.669c8.584,0.02,15.915,6.198,17.39,14.654l33.457,194.119
		C395.676,249.965,395.19,256.002,393.269,261.65z"/>
	<path style="fill:#FAC176;" d="M344.276,211.862L344.276,211.862c0,9.751-7.904,17.655-17.655,17.655h-35.31
		c-9.751,0-17.655,7.904-17.655,17.655v123.586c0,9.751-7.904,17.655-17.655,17.655l0,0c-9.751,0-17.655-7.904-17.655-17.655
		V247.172c0-9.751-7.904-17.655-17.655-17.655h-35.31c-9.751,0-17.655-7.904-17.655-17.655l0,0c0-9.751,7.904-17.655,17.655-17.655
		h35.31c9.751,0,17.655-7.904,17.655-17.655v-35.31c0-9.751,7.904-17.655,17.655-17.655l0,0c9.751,0,17.655,7.904,17.655,17.655
		v35.31c0,9.751,7.904,17.655,17.655,17.655h35.31C336.371,194.207,344.276,202.111,344.276,211.862z"/>
	<g>
		<path style="fill:#CB8252;" d="M203.034,26.483v83.862c0,4.875-3.952,8.828-8.828,8.828s-8.828-3.952-8.828-8.828V26.483H203.034z
			"/>
		<path style="fill:#CB8252;" d="M264.828,26.483v57.379c0,4.875-3.952,8.828-8.828,8.828s-8.828-3.952-8.828-8.828V26.483H264.828z
			"/>
		<path style="fill:#CB8252;" d="M326.621,26.483v110.345c0,4.875-3.952,8.828-8.828,8.828s-8.828-3.952-8.828-8.828V26.483H326.621
			z"/>
		<path style="fill:#CB8252;" d="M229.517,432.552v57.379h-17.655v-57.379c0-4.875,3.952-8.828,8.828-8.828
			S229.517,427.676,229.517,432.552z"/>
		<path style="fill:#CB8252;" d="M264.828,450.207v39.724h-17.655v-39.724c0-4.875,3.952-8.828,8.828-8.828
			S264.828,445.332,264.828,450.207z"/>
		<path style="fill:#CB8252;" d="M300.138,423.724v66.207h-17.655v-66.207c0-4.875,3.952-8.828,8.828-8.828
			S300.138,418.849,300.138,423.724z"/>
	</g>
</g>
<g>
</g>
<g>
</g>
<g>
</g>
<g>
</g>
<g>
</g>
<g>
</g>
<g>
</g>
<g>
</g>
<g>
</g>
<g>
</g>
<g>
</g>
<g>
</g>
<g>
</g>
<g>
</g>
<g>
</g>
</svg>
